<?xml version="1.0" encoding="UTF-8"?>
<svg width="265px" height="291px" viewBox="0 0 265 291" version="1.1" xmlns="http://www.w3.org/2000/svg" xmlns:xlink="http://www.w3.org/1999/xlink" style="background: #FFFFFF;">
    <!-- Generator: Sketch 47.1 (45422) - http://www.bohemiancoding.com/sketch -->
    <title>Artboard 2 Copy 4</title>
    <desc>Created with Sketch.</desc>
    <defs></defs>
    <g id="Page-1" stroke="none" stroke-width="1" fill="none" fill-rule="evenodd">
        <g id="Artboard-2-Copy-4">
            <path d="M243.977597,68 C216.922607,48.1621236 181.350305,38.0750678 137.260692,37.7388326 C93.1710794,37.4025974 54.0916497,46.31283 20.0224033,64.4695305 L9,41.2693021 C45.7413442,20.7589553 83.8187373,10.6718995 123.232179,11.0081347 C182.352342,11.5124875 180.348269,12.0168403 185.358452,13.0255459 C190.368635,14.0342515 258,32.4390609 258,39.5 C258,44.2072927 253.325866,53.7072927 243.977597,68 Z" id="Path-12"></path>
            <path d="M29.0069606,75.0702418 C59.4106729,61.0702418 77.7865429,51.9035752 84.1345708,47.5702418 C93.6566125,41.0702418 110.696056,37.5702418 112.700696,37.0702418 C114.705336,36.5702418 138.761021,30.0702418 159.308585,32.5702418 C173.006961,34.2369085 190.547564,41.2252015 211.930394,53.5351209 L242,72.0702418 L139.763341,279.070242 C134.75174,282.356747 131.911833,284 131.243619,284 C130.575406,284 128.570766,280.856747 125.229698,274.570242 L117.712297,259.070242 L103.679814,230.070242 L26,76.5702418 L29.0069606,75.0702418 Z" id="Path-17" fill="#FFFFFF"></path>
            <path d="M20,63.3076615 C35.4050144,56.8316548 46.3462358,52.5333713 52.8236643,50.412811 C74.0328012,43.46943 95.285846,40.1422139 106.856466,39.0058279 C108.502681,38.8441481 95.6397041,42.0643177 86.152308,46.4451647 C76.3212256,50.9847105 65.7883937,58.1526726 55.941288,63.3076615 C46.1410643,68.4381075 37.0038676,71.5636474 36.6643219,72.7308214 C35.9910159,75.0452818 32.4329802,76.4683413 25.9902147,77 L20,63.3076615 Z" id="Path-18"></path>
            <path d="M204,48 C211.603645,50.2577586 216.832561,51.8917455 219.686747,52.9019608 C229.445565,56.3560125 241.98887,62.2515897 242.457831,62.7058824 C243.13253,63.3594771 244.313253,64.0130719 246,64.6666667 L240.433735,73 L228.795181,64.6666667 L204,48 Z" id="Path-19"></path>
            <path d="M28,77 C38.267619,72.5391267 45.6009524,69.2642729 50,67.1754386 C65.403214,59.8614095 76.5,52.4385965 83,49" id="Path-16" stroke="#1C3236" stroke-width="6" fill="#FFE177" stroke-linecap="round"></path>
            <path d="M104,39.9162163 C111.028112,37.5753639 118.892905,35.9033265 127.594378,34.9001041 C145.10506,32.8812378 155.837067,34.5687238 170.26506,36.906549 C182.905081,38.9546619 194.446163,44.3093656 198.37751,46.4371622 C210.425703,52.9581082 207.300522,50.8785178 215.947791,56.4693867 C221.637216,60.147869 225.987952,63.3247401 229,66" id="Path-15" stroke="#1C3236" stroke-width="6" stroke-linecap="round"></path>
            <path d="M187,14.1397327 C162.95087,10.1421628 142.742921,8.47650871 126.376151,9.14277035 C101.825998,10.1421628 84.7911975,13.6400365 73.2676561,16.6382139 C61.7441146,19.6363913 34.1878199,27.1318348 27.6745138,30.1300122 C21.1612078,33.1281896 10.6397134,37.1257594 9.13664278,42.1227217 C8.1345957,45.45403 12.6438076,55.4479546 22.6642784,72.1044957 L108.339304,244" id="Path-13" stroke="#2D3F45" stroke-width="6" stroke-linecap="round"></path>
            <rect id="Rectangle-3" stroke="#1C3236" stroke-width="5" transform="translate(155.000000, 139.500000) rotate(53.000000) translate(-155.000000, -139.500000) " x="145.5" y="122.5" width="19" height="34" rx="2"></rect>
            <rect id="Rectangle-3" stroke="#1C3236" stroke-width="5" transform="translate(184.000000, 72.500000) rotate(-63.000000) translate(-184.000000, -72.500000) " x="174.5" y="55.5" width="19" height="34" rx="2"></rect>
            <rect id="Rectangle-3" stroke="#1C3236" stroke-width="5" transform="translate(88.000000, 167.000000) rotate(-50.000000) translate(-88.000000, -167.000000) " x="78.5" y="150.5" width="19" height="33" rx="2"></rect>
            <path d="M154.007838,245 C143.677035,240.995161 138.011757,238.158399 137.012001,236.489716 C135.512369,233.986692 123.515308,218.968544 124.015186,211.960075 C124.515063,204.951606 127.514328,187.430434 129.513838,186.429224 C131.513349,185.428015 141.011022,173.413496 143.010532,173.413496 C145.010042,173.413496 152.008328,167.406237 167.504531,169.408657 C177.835334,170.743604 184.00049,173.747233 186,178.419546 L186,184.426805 L178.501837,199.444952 L154.007838,245 Z" id="Path-22"></path>
            <path d="M139.982334,237 C134.54986,233.027511 131.034402,229.360845 129.43596,226 C125.388649,217.490223 124.288527,206.849674 125.418294,201 C126.747857,194.115827 129.003325,189.505891 131.444793,185.5 C133.958704,181.375248 138.728461,176.42232 144,174" id="Path-20" stroke="#1C3236" stroke-width="6" stroke-linecap="round"></path>
            <path d="M161,170 C166.443948,170.386415 171.108265,171.274152 174.992951,172.663212 C180.819979,174.746802 182.571603,175.99277 186,179" id="Path-21" stroke="#1C3236" stroke-width="6" stroke-linecap="round" transform="translate(173.500000, 174.500000) rotate(-4.000000) translate(-173.500000, -174.500000) "></path>
            <path d="M202.714025,17 C232.119938,26.6732441 248.660763,32.8441068 252.336502,35.5125879 C257.850111,39.5153096 258.351348,40.51599 257.850111,43.0176911 C257.348874,45.5193922 253.840214,52.0238149 250.832791,58.0278975 C248.827842,62.0306192 212.40461,134.24639 141.563094,274.67521 C139.892304,278.344371 138.388592,280.679292 137.05196,281.679973 C135.047011,283.180993 131.037114,283.681334 128.029691,281.679973 C126.024743,280.345732 122.014846,273.340969 116,260.665684" id="Path-14" stroke="#24383D" stroke-width="6" stroke-linecap="round"></path>
            <circle id="Oval" cx="104.5" cy="95.5" r="35.5"></circle>
            <path d="M106,130 C113.094676,130 120.020431,127.206573 126.777265,121.619718 C136.912517,113.239437 140.459855,104.366197 139.953092,95" id="Path-24" stroke="#1C3236" stroke-width="6" stroke-linecap="round"></path>
            <path d="M85.8602779,126 C80.3980213,122.978955 65.5155628,113.762611 66.0121316,96.1398489 C66.5087004,78.5170865 77.4332136,60.8943241 98.2891024,58.3767866 C119.144991,55.8592491 132.537743,66.2358164 138,81.1878327" id="Path-23" stroke="#1C3236" stroke-width="6" stroke-linecap="round"></path>
        </g>
    </g>
</svg>